<?xml version="1.0" encoding="UTF-8"?><svg id="Layer_1" xmlns="http://www.w3.org/2000/svg" xmlns:xlink="http://www.w3.org/1999/xlink" viewBox="0 0 660.29 110.23"><defs><style>.cls-1{fill:none;}.cls-2{clip-path:url(#clippath);}.cls-3{fill:#fff;}</style><clipPath id="clippath"><rect class="cls-1" y=".03" width="83" height="83"/></clipPath></defs><g class="cls-2"><path class="cls-3" d="M45.57,83v-15.92h10.67c3-29.95,20-56.93,26.69-63.58-8.54,.38-19.63,9.61-24.39,15.18h6.63c-3.71,6.26-11.66,23.81-14.27,39.47h-5.33V18.69h8.46L41.53,0l-12.61,18.68h8.56V58.16h-5.43c-2.55-15.66-10.5-33.21-14.17-39.47h6.63C19.7,13.12,8.61,3.88,.11,3.5c6.65,6.66,23.65,33.64,26.59,63.58h10.77v15.92h8.1"/></g><path class="cls-3" d="M154.39,77.66h-12.4L102.08,23.95v53.71h-12.63V2.78h12.42l40.13,53.79V2.78h12.4V77.66h0Z"/><path class="cls-3" d="M225.11,14.12h-40.88v20.21h36.6v11.35h-36.6v20.65h42.17v11.33h-54.79V2.78h53.5V14.12h0Z"/><path class="cls-3" d="M239.22,2.78h29.85c9.42,0,16.71,2.23,21.88,6.69,5.17,4.45,7.75,10.74,7.75,18.88s-2.58,15.07-7.75,19.75c-5.17,4.67-12.46,7-21.88,7h-17.23v22.56h-12.63V2.78h0Zm12.63,11.33v29.63h16.69c12.05,0,18.08-5.03,18.08-15.08s-6.03-14.54-18.08-14.54h-16.69Z"/><path class="cls-3" d="M359.79,14.12h-23.75v63.54h-12.63V14.12h-23.65V2.78h60.02V14.12h.01Z"/><path class="cls-3" d="M431.68,2.78V46.64c0,9.77-2.89,17.47-8.67,23.1-5.78,5.64-13.73,8.46-23.85,8.46s-18.1-2.82-23.92-8.46c-5.81-5.64-8.71-13.34-8.71-23.1V2.78h12.6V46.64c0,6.28,1.8,11.22,5.4,14.81,3.61,3.6,8.52,5.4,14.73,5.4s10.95-1.78,14.48-5.33c3.54-3.57,5.31-8.53,5.31-14.88V2.78h12.63Z"/><path class="cls-3" d="M512.11,77.66h-12.4l-39.92-53.71v53.71h-12.63V2.78h12.42l40.13,53.79V2.78h12.4V77.66Z"/><path class="cls-3" d="M593,2.78V46.64c0,9.77-2.89,17.47-8.67,23.1-5.78,5.64-13.73,8.46-23.85,8.46s-18.1-2.82-23.92-8.46c-5.81-5.64-8.71-13.34-8.71-23.1V2.78h12.6V46.64c0,6.28,1.8,11.22,5.4,14.81,3.61,3.6,8.52,5.4,14.73,5.4s10.95-1.78,14.48-5.33c3.54-3.57,5.31-8.53,5.31-14.88V2.78h12.63Z"/><path class="cls-3" d="M633.1,2.24c9.71,0,18.45,2.57,26.23,7.71l-5.25,11.13c-7.64-4.64-14.95-6.96-21.94-6.96-3.78,0-6.76,.68-8.94,2.04-2.17,1.35-3.25,3.27-3.25,5.77s.99,4.6,2.98,6.35c2,1.75,4.5,3.04,7.5,3.85,3,.82,6.24,1.85,9.73,3.1,3.5,1.25,6.74,2.57,9.73,3.96,3,1.39,5.48,3.56,7.44,6.52,1.97,2.96,2.96,6.54,2.96,10.75,0,6.57-2.63,11.82-7.88,15.75-5.24,3.92-12.03,5.88-20.38,5.88-5.71,0-11.24-1.07-16.58-3.21-5.35-2.15-10.02-5.04-14-8.67l5.44-10.92c3.79,3.49,7.95,6.18,12.48,8.08,4.53,1.89,8.82,2.83,12.88,2.83,4.43,0,7.88-.8,10.33-2.42,2.46-1.61,3.69-3.84,3.69-6.69,0-2.57-1-4.72-3-6.46-1.99-1.75-4.48-3.03-7.48-3.85s-6.25-1.82-9.75-3c-3.49-1.18-6.73-2.43-9.73-3.75-2.99-1.32-5.48-3.44-7.48-6.35-2-2.93-3-6.46-3-10.6,0-6.34,2.49-11.41,7.48-15.19,5-3.78,11.59-5.67,19.79-5.67v.02Z"/><rect class="cls-3" x="37.47" y="79.83" width="8.08" height="30.4"/><g><path class="cls-3" d="M96.05,97.53l-5.93-10.1h3.91l3.67,6.73h.09l3.65-6.73h3.93l-5.95,10.1v5.61h-3.37v-5.61Z"/><path class="cls-3" d="M121.3,87.43h3.82l6.04,15.71h-3.59l-1.33-3.59h-6.06l-1.35,3.59h-3.59l6.06-15.71Zm3.82,9.09l-1.87-5.16h-.09l-1.87,5.16h3.82Z"/><path class="cls-3" d="M150.7,103.48c-1.22,0-2.35-.21-3.39-.64-1.03-.44-1.93-1.03-2.69-1.76-.76-.74-1.36-1.61-1.8-2.6-.43-1-.64-2.06-.64-3.18s.21-2.19,.64-3.18c.44-1,1.04-1.87,1.8-2.6,.76-.74,1.65-1.33,2.69-1.76,1.04-.43,2.18-.64,3.39-.64,1.09,0,2.05,.17,2.88,.49,.83,.32,1.51,.68,2.06,1.07,.64,.46,1.2,.98,1.68,1.57l-2.26,2.23c-.33-.41-.71-.78-1.14-1.12-.38-.28-.83-.54-1.38-.77-.53-.23-1.15-.34-1.85-.34s-1.36,.13-1.98,.39c-.62,.26-1.15,.62-1.61,1.07-.46,.46-.82,1-1.07,1.61-.26,.62-.39,1.28-.39,1.98s.13,1.36,.39,1.98c.26,.6,.61,1.13,1.07,1.59,.46,.46,.99,.82,1.61,1.07,.61,.26,1.27,.39,1.98,.39s1.36-.11,1.91-.34c.56-.23,1.03-.48,1.42-.77,.46-.33,.84-.7,1.16-1.12l2.23,2.23c-.46,.59-1.02,1.12-1.68,1.59-.57,.39-1.28,.75-2.13,1.07-.83,.33-1.8,.49-2.92,.49Z"/><path class="cls-3" d="M169.76,87.43h3.37v6.17h6.73v-6.17h3.35v15.71h-3.35v-6.4h-6.73v6.4h-3.37v-15.71Z"/><path class="cls-3" d="M200.05,90.57h-4.49v-3.14h12.33v3.14h-4.49v12.57h-3.35v-12.57Z"/><path class="cls-3" d="M242.34,103.48c-1.22,0-2.35-.21-3.39-.64-1.03-.44-1.93-1.03-2.69-1.76-.76-.74-1.36-1.61-1.8-2.6-.43-1-.64-2.06-.64-3.18s.21-2.19,.64-3.18c.44-1,1.04-1.87,1.8-2.6,.76-.74,1.65-1.33,2.69-1.76,1.04-.43,2.18-.64,3.39-.64,1.09,0,2.05,.17,2.88,.49,.83,.32,1.51,.68,2.06,1.07,.64,.46,1.2,.98,1.68,1.57l-2.26,2.23c-.33-.41-.71-.78-1.14-1.12-.38-.28-.83-.54-1.38-.77-.53-.23-1.15-.34-1.85-.34s-1.36,.13-1.98,.39c-.62,.26-1.15,.62-1.61,1.07-.46,.46-.82,1-1.07,1.61-.26,.62-.39,1.28-.39,1.98s.13,1.36,.39,1.98c.26,.6,.61,1.13,1.07,1.59,.46,.46,.99,.82,1.61,1.07,.61,.26,1.27,.39,1.98,.39s1.36-.11,1.91-.34c.56-.23,1.03-.48,1.42-.77,.46-.33,.84-.7,1.16-1.12l2.23,2.23c-.46,.59-1.02,1.12-1.68,1.59-.57,.39-1.28,.75-2.13,1.07-.83,.33-1.8,.49-2.92,.49Z"/><path class="cls-3" d="M261.41,87.43h3.37v6.17h6.73v-6.17h3.35v15.71h-3.35v-6.4h-6.73v6.4h-3.37v-15.71Z"/><path class="cls-3" d="M292.93,87.43h3.82l6.04,15.71h-3.59l-1.33-3.59h-6.06l-1.35,3.59h-3.59l6.06-15.71Zm3.82,9.09l-1.87-5.16h-.09l-1.87,5.16h3.82Z"/><path class="cls-3" d="M314.8,87.43h6.96c.83,0,1.58,.13,2.26,.39,.69,.26,1.27,.62,1.74,1.07,.48,.46,.85,1.02,1.1,1.68,.26,.64,.39,1.36,.39,2.15,0,.89-.14,1.63-.41,2.23-.27,.6-.58,1.07-.92,1.42-.39,.4-.84,.72-1.35,.95l3.24,5.82h-3.7l-2.79-5.16h-3.14v5.16h-3.37v-15.71Zm6.83,7.41c.63,0,1.14-.2,1.55-.6s.6-.91,.6-1.53-.2-1.14-.6-1.55c-.4-.4-.92-.6-1.55-.6h-3.46v4.28h3.46Z"/><path class="cls-3" d="M343.41,90.57h-4.49v-3.14h12.33v3.14h-4.49v12.57h-3.35v-12.57Z"/><path class="cls-3" d="M363.6,87.43h11.67v3.14h-8.29v3.03h6.49v3.03h-6.49v3.37h8.51v3.14h-11.88v-15.71Z"/><path class="cls-3" d="M388.39,87.43h6.96c.83,0,1.58,.13,2.26,.39,.69,.26,1.27,.62,1.74,1.07,.48,.46,.85,1.02,1.1,1.68,.26,.64,.39,1.36,.39,2.15,0,.89-.14,1.63-.41,2.23-.27,.6-.58,1.07-.92,1.42-.39,.4-.84,.72-1.35,.95l3.24,5.82h-3.7l-2.79-5.16h-3.14v5.16h-3.37v-15.71Zm6.83,7.41c.63,0,1.14-.2,1.55-.6s.6-.91,.6-1.53-.2-1.14-.6-1.55c-.4-.4-.92-.6-1.55-.6h-3.46v4.28h3.46Z"/><path class="cls-3" d="M417.88,103.59c-.76,0-1.44-.12-2.04-.34-.6-.21-1.12-.52-1.55-.9-.43-.4-.76-.86-.99-1.4-.23-.54-.34-1.12-.34-1.74,0-.73,.15-1.36,.45-1.89,.31-.54,.67-1,1.05-1.38,.44-.41,.95-.78,1.53-1.1-.39-.35-.73-.74-1.01-1.16-.26-.34-.49-.74-.71-1.2-.2-.46-.3-.95-.3-1.46,0-.57,.1-1.1,.3-1.59,.2-.5,.48-.93,.86-1.29,.39-.35,.84-.63,1.38-.84,.54-.21,1.15-.32,1.83-.32,.61,0,1.17,.1,1.68,.3,.52,.19,.95,.45,1.31,.8,.37,.34,.66,.75,.86,1.22,.2,.46,.3,.96,.3,1.5,0,.63-.14,1.2-.41,1.7-.27,.49-.58,.9-.92,1.25-.39,.4-.84,.77-1.35,1.1l2.47,2.9c.11-.18,.23-.41,.34-.69,.07-.23,.14-.5,.21-.82,.07-.31,.11-.67,.11-1.07h2.81c0,.72-.09,1.37-.26,1.96-.16,.57-.34,1.07-.54,1.5-.23,.5-.49,.96-.77,1.38,.1,.13,.24,.24,.41,.32,.13,.1,.28,.19,.47,.26,.2,.06,.43,.09,.69,.09,.14,0,.28-.01,.41-.04,.05-.01,.11-.03,.15-.06v2.58c-.1,.05-.23,.11-.39,.17-.29,.11-.61,.17-.97,.17-.47,0-.89-.08-1.25-.24-.34-.14-.64-.31-.88-.49-.27-.2-.5-.44-.69-.73-.29,.3-.63,.56-1.03,.77-.34,.21-.78,.4-1.31,.56-.53,.16-1.17,.24-1.91,.24Zm.24-2.69c.34,0,.64-.04,.9-.13,.26-.1,.49-.2,.71-.32,.23-.14,.44-.29,.62-.45l-2.79-3.37c-.29,.19-.54,.41-.75,.67-.17,.2-.34,.46-.49,.77-.15,.3-.21,.64-.21,1.03,0,.52,.18,.95,.54,1.29,.35,.34,.85,.52,1.48,.52Zm.11-7.76c.26-.18,.48-.4,.67-.64,.17-.18,.33-.41,.47-.67,.14-.26,.21-.53,.21-.82,0-.39-.12-.7-.37-.95-.25-.26-.54-.39-.88-.39-.39,0-.71,.13-.97,.39-.25,.25-.37,.56-.37,.95,0,.29,.05,.56,.17,.82,.11,.26,.26,.48,.43,.67,.17,.25,.38,.46,.62,.64Z"/><path class="cls-3" d="M438.64,87.43h6.62c.77,0,1.47,.12,2.11,.34,.63,.23,1.16,.53,1.59,.9,.43,.38,.76,.82,.99,1.33,.24,.5,.37,1.03,.37,1.57,0,.63-.12,1.15-.34,1.57-.21,.42-.46,.75-.73,.99-.32,.3-.67,.54-1.05,.71,.53,.16,1.02,.41,1.46,.75,.35,.3,.69,.7,.99,1.18,.3,.49,.45,1.11,.45,1.87,0,.62-.12,1.2-.37,1.74-.25,.55-.6,1.03-1.07,1.44-.46,.4-1.03,.73-1.7,.97-.66,.23-1.41,.34-2.23,.34h-7.07v-15.71Zm6.83,12.78c.67,0,1.19-.17,1.57-.52,.39-.35,.58-.82,.58-1.38s-.19-1.03-.58-1.38c-.38-.35-.9-.54-1.57-.54h-3.46v3.8h3.46Zm-.43-6.73c.56,0,.99-.15,1.31-.45,.31-.3,.47-.67,.47-1.12s-.16-.82-.47-1.12c-.32-.3-.75-.45-1.31-.45h-3.03v3.14h3.03Z"/><path class="cls-3" d="M463.99,87.43h6.96c.83,0,1.58,.13,2.26,.39,.69,.26,1.27,.62,1.74,1.07,.48,.46,.85,1.02,1.1,1.68,.26,.64,.39,1.36,.39,2.15,0,.89-.14,1.63-.41,2.23-.27,.6-.58,1.07-.92,1.42-.39,.4-.84,.72-1.35,.95l3.24,5.82h-3.7l-2.79-5.16h-3.14v5.16h-3.37v-15.71Zm6.83,7.41c.63,0,1.14-.2,1.55-.6s.6-.91,.6-1.53-.2-1.14-.6-1.55c-.4-.4-.92-.6-1.55-.6h-3.46v4.28h3.46Z"/><path class="cls-3" d="M497.2,103.48c-1.22,0-2.35-.21-3.39-.64-1.03-.44-1.93-1.03-2.69-1.76-.76-.74-1.36-1.61-1.8-2.6-.43-1-.64-2.06-.64-3.18s.21-2.19,.64-3.18c.44-1,1.04-1.87,1.8-2.6,.76-.74,1.65-1.33,2.69-1.76,1.04-.43,2.18-.64,3.39-.64s2.32,.21,3.35,.64c1.04,.43,1.94,1.02,2.71,1.76,.77,.73,1.38,1.6,1.8,2.6,.43,.99,.64,2.05,.64,3.18s-.21,2.18-.64,3.18c-.43,.99-1.03,1.86-1.8,2.6-.76,.73-1.67,1.32-2.71,1.76-1.03,.43-2.15,.64-3.35,.64Zm0-3.16c.7,0,1.35-.13,1.96-.39,.61-.26,1.15-.61,1.61-1.07,.46-.46,.82-.99,1.07-1.59,.27-.61,.41-1.27,.41-1.98s-.14-1.36-.41-1.98c-.26-.61-.62-1.15-1.07-1.61-.46-.46-1-.82-1.61-1.07-.6-.26-1.26-.39-1.96-.39s-1.36,.13-1.98,.39c-.62,.26-1.15,.62-1.61,1.07-.46,.46-.82,1-1.07,1.61-.26,.62-.39,1.28-.39,1.98s.13,1.36,.39,1.98c.26,.6,.61,1.13,1.07,1.59,.46,.46,.99,.82,1.61,1.07,.61,.26,1.27,.39,1.98,.39Z"/><path class="cls-3" d="M518.62,87.43h3.37v6.73l6.04-6.73h4.04l-5.82,6.51,6.27,9.2h-3.91l-4.6-6.73-2.02,2.13v4.6h-3.37v-15.71Z"/><path class="cls-3" d="M544.2,87.43h11.67v3.14h-8.29v3.03h6.49v3.03h-6.49v3.37h8.51v3.14h-11.88v-15.71Z"/><path class="cls-3" d="M568.99,87.43h6.96c.83,0,1.58,.13,2.26,.39,.69,.26,1.27,.62,1.74,1.07,.48,.46,.85,1.02,1.1,1.68,.26,.64,.39,1.36,.39,2.15,0,.89-.14,1.63-.41,2.23-.27,.6-.58,1.07-.92,1.42-.39,.4-.84,.72-1.35,.95l3.24,5.82h-3.7l-2.79-5.16h-3.14v5.16h-3.37v-15.71Zm6.83,7.41c.63,0,1.14-.2,1.55-.6s.6-.91,.6-1.53-.2-1.14-.6-1.55c-.4-.4-.92-.6-1.55-.6h-3.46v4.28h3.46Z"/><path class="cls-3" d="M598.82,87.43h3.82l6.04,15.71h-3.59l-1.33-3.59h-6.06l-1.35,3.59h-3.59l6.06-15.71Zm3.82,9.09l-1.87-5.16h-.09l-1.87,5.16h3.82Z"/><path class="cls-3" d="M628.22,103.48c-1.22,0-2.35-.21-3.39-.64-1.03-.44-1.93-1.03-2.69-1.76-.76-.74-1.36-1.61-1.8-2.6-.43-1-.64-2.06-.64-3.18s.21-2.19,.64-3.18c.44-1,1.04-1.87,1.8-2.6,.76-.74,1.65-1.33,2.69-1.76,1.04-.43,2.18-.64,3.39-.64,1.09,0,2.05,.17,2.88,.49,.83,.32,1.51,.68,2.06,1.07,.64,.46,1.2,.98,1.68,1.57l-2.26,2.23c-.33-.41-.71-.78-1.14-1.12-.38-.28-.83-.54-1.38-.77-.53-.23-1.15-.34-1.85-.34s-1.36,.13-1.98,.39c-.62,.26-1.15,.62-1.61,1.07-.46,.46-.82,1-1.07,1.61-.26,.62-.39,1.28-.39,1.98s.13,1.36,.39,1.98c.26,.6,.61,1.13,1.07,1.59,.46,.46,.99,.82,1.61,1.07,.61,.26,1.27,.39,1.98,.39,.56,0,1.05-.05,1.48-.17,.43-.11,.8-.26,1.1-.43,.34-.17,.64-.38,.9-.62v-1.91h-2.92v-2.69h6.27v5.95c-.49,.56-1.07,1.07-1.74,1.53-.57,.39-1.29,.74-2.15,1.05-.85,.3-1.83,.45-2.94,.45Z"/><path class="cls-3" d="M648.41,87.43h11.67v3.14h-8.29v3.03h6.49v3.03h-6.49v3.37h8.51v3.14h-11.88v-15.71Z"/></g></svg>